<svg xmlns="http://www.w3.org/2000/svg" viewBox="0 0 64 64">
  <!-- T made of wrenches - horizontal wrench on top, vertical wrench as stem -->

  <!-- Horizontal wrench (crossbar) -->
  <rect x="8" y="10" width="48" height="8" rx="2" fill="#6B7280" stroke="#374151" stroke-width="1.5"/>
  <!-- Left wrench head -->
  <path d="M4 8 L12 8 L12 6 L8 6 L8 4 L4 4 L4 8 Z" fill="#4B5563" stroke="#374151" stroke-width="1"/>
  <path d="M4 20 L12 20 L12 22 L8 22 L8 24 L4 24 L4 20 Z" fill="#4B5563" stroke="#374151" stroke-width="1"/>
  <rect x="4" y="8" width="8" height="12" fill="#4B5563" stroke="#374151" stroke-width="1"/>
  <!-- Right wrench head -->
  <path d="M52 8 L60 8 L60 4 L56 4 L56 6 L52 6 L52 8 Z" fill="#4B5563" stroke="#374151" stroke-width="1"/>
  <path d="M52 20 L60 20 L60 24 L56 24 L56 22 L52 22 L52 20 Z" fill="#4B5563" stroke="#374151" stroke-width="1"/>
  <rect x="52" y="8" width="8" height="12" fill="#4B5563" stroke="#374151" stroke-width="1"/>

  <!-- Vertical wrench (stem) -->
  <rect x="28" y="18" width="8" height="38" rx="2" fill="#6B7280" stroke="#374151" stroke-width="1.5"/>
  <!-- Bottom wrench head -->
  <path d="M24 52 L24 60 L22 60 L22 56 L20 56 L20 52 L24 52 Z" fill="#4B5563" stroke="#374151" stroke-width="1"/>
  <path d="M40 52 L40 60 L42 60 L42 56 L44 56 L44 52 L40 52 Z" fill="#4B5563" stroke="#374151" stroke-width="1"/>
  <rect x="24" y="52" width="16" height="8" fill="#4B5563" stroke="#374151" stroke-width="1"/>
</svg>
